<mxfile host="Electron" modified="2023-10-23T00:36:49.779Z" agent="Mozilla/5.0 (Windows NT 10.0; Win64; x64) AppleWebKit/537.36 (KHTML, like Gecko) draw.io/21.7.5 Chrome/114.0.5735.289 Electron/25.8.1 Safari/537.36" etag="-12wxErxfT96XglxR6bl" version="21.7.5" type="device">
  <diagram name="Page-1" id="ByE_iyZ5ZZ_60SZ4c1Ou">
    <mxGraphModel dx="2074" dy="2297" grid="0" gridSize="10" guides="1" tooltips="1" connect="1" arrows="1" fold="1" page="1" pageScale="1" pageWidth="850" pageHeight="1100" math="0" shadow="0">
      <root>
        <mxCell id="0" />
        <mxCell id="1" parent="0" />
        <mxCell id="KiiTx_aMD7oUM9jOCkIs-1" value="" style="rounded=0;whiteSpace=wrap;html=1;movable=1;resizable=1;rotatable=1;deletable=1;editable=1;locked=0;connectable=1;" parent="1" vertex="1">
          <mxGeometry x="390" y="310" width="120" height="311" as="geometry" />
        </mxCell>
        <mxCell id="KiiTx_aMD7oUM9jOCkIs-2" value="Contractor/TekSystems Employee" style="rounded=0;whiteSpace=wrap;html=1;fontSize=11;" parent="1" vertex="1">
          <mxGeometry x="390" y="310" width="120" height="30" as="geometry" />
        </mxCell>
        <mxCell id="KiiTx_aMD7oUM9jOCkIs-4" value="firstName" style="text;html=1;strokeColor=none;fillColor=none;align=left;verticalAlign=middle;whiteSpace=wrap;rounded=0;movable=1;resizable=1;rotatable=1;deletable=1;editable=1;locked=0;connectable=1;" parent="1" vertex="1">
          <mxGeometry x="394" y="340" width="120" height="30" as="geometry" />
        </mxCell>
        <mxCell id="KiiTx_aMD7oUM9jOCkIs-6" value="" style="endArrow=none;html=1;rounded=0;" parent="1" edge="1">
          <mxGeometry width="50" height="50" relative="1" as="geometry">
            <mxPoint x="395" y="370" as="sourcePoint" />
            <mxPoint x="485" y="370" as="targetPoint" />
          </mxGeometry>
        </mxCell>
        <mxCell id="KiiTx_aMD7oUM9jOCkIs-7" value="lastName" style="text;html=1;strokeColor=none;fillColor=none;align=left;verticalAlign=middle;whiteSpace=wrap;rounded=0;movable=1;resizable=1;rotatable=1;deletable=1;editable=1;locked=0;connectable=1;" parent="1" vertex="1">
          <mxGeometry x="394" y="370" width="120" height="30" as="geometry" />
        </mxCell>
        <mxCell id="KiiTx_aMD7oUM9jOCkIs-8" value="" style="endArrow=none;html=1;rounded=0;" parent="1" edge="1">
          <mxGeometry width="50" height="50" relative="1" as="geometry">
            <mxPoint x="395" y="400" as="sourcePoint" />
            <mxPoint x="485" y="400" as="targetPoint" />
          </mxGeometry>
        </mxCell>
        <mxCell id="KiiTx_aMD7oUM9jOCkIs-9" value="address" style="text;html=1;strokeColor=none;fillColor=none;align=left;verticalAlign=middle;whiteSpace=wrap;rounded=0;movable=1;resizable=1;rotatable=1;deletable=1;editable=1;locked=0;connectable=1;" parent="1" vertex="1">
          <mxGeometry x="394" y="400" width="120" height="30" as="geometry" />
        </mxCell>
        <mxCell id="KiiTx_aMD7oUM9jOCkIs-10" value="" style="endArrow=none;html=1;rounded=0;" parent="1" edge="1">
          <mxGeometry width="50" height="50" relative="1" as="geometry">
            <mxPoint x="395" y="430" as="sourcePoint" />
            <mxPoint x="485" y="430" as="targetPoint" />
          </mxGeometry>
        </mxCell>
        <mxCell id="63CUUzJwgc4DHzstttqR-35" style="edgeStyle=orthogonalEdgeStyle;rounded=0;orthogonalLoop=1;jettySize=auto;html=1;entryX=0.006;entryY=0.408;entryDx=0;entryDy=0;entryPerimeter=0;endArrow=none;endFill=0;" parent="1" source="KiiTx_aMD7oUM9jOCkIs-11" target="63CUUzJwgc4DHzstttqR-3" edge="1">
          <mxGeometry relative="1" as="geometry">
            <Array as="points" />
          </mxGeometry>
        </mxCell>
        <mxCell id="KiiTx_aMD7oUM9jOCkIs-11" value="phoneNumber" style="text;html=1;strokeColor=none;fillColor=none;align=left;verticalAlign=middle;whiteSpace=wrap;rounded=0;movable=1;resizable=1;rotatable=1;deletable=1;editable=1;locked=0;connectable=1;" parent="1" vertex="1">
          <mxGeometry x="394" y="430" width="120" height="30" as="geometry" />
        </mxCell>
        <mxCell id="KiiTx_aMD7oUM9jOCkIs-12" value="" style="endArrow=none;html=1;rounded=0;" parent="1" edge="1">
          <mxGeometry width="50" height="50" relative="1" as="geometry">
            <mxPoint x="395" y="460" as="sourcePoint" />
            <mxPoint x="485" y="460" as="targetPoint" />
          </mxGeometry>
        </mxCell>
        <mxCell id="KiiTx_aMD7oUM9jOCkIs-13" value="emailAddress" style="text;html=1;strokeColor=none;fillColor=none;align=left;verticalAlign=middle;whiteSpace=wrap;rounded=0;movable=1;resizable=1;rotatable=1;deletable=1;editable=1;locked=0;connectable=1;" parent="1" vertex="1">
          <mxGeometry x="394" y="460" width="120" height="30" as="geometry" />
        </mxCell>
        <mxCell id="KiiTx_aMD7oUM9jOCkIs-14" value="" style="endArrow=none;html=1;rounded=0;" parent="1" edge="1">
          <mxGeometry width="50" height="50" relative="1" as="geometry">
            <mxPoint x="395" y="490" as="sourcePoint" />
            <mxPoint x="485" y="490" as="targetPoint" />
          </mxGeometry>
        </mxCell>
        <mxCell id="KiiTx_aMD7oUM9jOCkIs-15" value="hourlyBillingRate" style="text;html=1;strokeColor=none;fillColor=none;align=left;verticalAlign=middle;whiteSpace=wrap;rounded=0;movable=1;resizable=1;rotatable=1;deletable=1;editable=1;locked=0;connectable=1;" parent="1" vertex="1">
          <mxGeometry x="394" y="490" width="120" height="30" as="geometry" />
        </mxCell>
        <mxCell id="KiiTx_aMD7oUM9jOCkIs-16" value="" style="endArrow=none;html=1;rounded=0;" parent="1" edge="1">
          <mxGeometry width="50" height="50" relative="1" as="geometry">
            <mxPoint x="395" y="520" as="sourcePoint" />
            <mxPoint x="485" y="520" as="targetPoint" />
          </mxGeometry>
        </mxCell>
        <mxCell id="KiiTx_aMD7oUM9jOCkIs-17" value="positionTitle" style="text;html=1;strokeColor=none;fillColor=none;align=left;verticalAlign=middle;whiteSpace=wrap;rounded=0;movable=1;resizable=1;rotatable=1;deletable=1;editable=1;locked=0;connectable=1;" parent="1" vertex="1">
          <mxGeometry x="394" y="520" width="120" height="30" as="geometry" />
        </mxCell>
        <mxCell id="KiiTx_aMD7oUM9jOCkIs-18" value="" style="endArrow=none;html=1;rounded=0;" parent="1" edge="1">
          <mxGeometry width="50" height="50" relative="1" as="geometry">
            <mxPoint x="395" y="550" as="sourcePoint" />
            <mxPoint x="485" y="550" as="targetPoint" />
          </mxGeometry>
        </mxCell>
        <mxCell id="63CUUzJwgc4DHzstttqR-1" value="" style="edgeStyle=orthogonalEdgeStyle;rounded=0;orthogonalLoop=1;jettySize=auto;html=1;exitX=0.25;exitY=0;exitDx=0;exitDy=0;entryX=0.5;entryY=1;entryDx=0;entryDy=0;endArrow=none;endFill=0;" parent="1" source="KiiTx_aMD7oUM9jOCkIs-2" edge="1">
          <mxGeometry relative="1" as="geometry">
            <mxPoint x="420" y="310" as="sourcePoint" />
            <mxPoint x="400" y="310" as="targetPoint" />
          </mxGeometry>
        </mxCell>
        <mxCell id="63CUUzJwgc4DHzstttqR-3" value="" style="rounded=0;whiteSpace=wrap;html=1;movable=1;resizable=1;rotatable=1;deletable=1;editable=1;locked=0;connectable=1;" parent="1" vertex="1">
          <mxGeometry x="664" y="295" width="120" height="368" as="geometry" />
        </mxCell>
        <mxCell id="63CUUzJwgc4DHzstttqR-4" value="Overall Project" style="rounded=0;whiteSpace=wrap;html=1;fontSize=11;" parent="1" vertex="1">
          <mxGeometry x="664" y="295" width="120" height="30" as="geometry" />
        </mxCell>
        <mxCell id="63CUUzJwgc4DHzstttqR-5" value="startDate" style="text;html=1;strokeColor=none;fillColor=none;align=left;verticalAlign=middle;whiteSpace=wrap;rounded=0;movable=1;resizable=1;rotatable=1;deletable=1;editable=1;locked=0;connectable=1;" parent="1" vertex="1">
          <mxGeometry x="668" y="325" width="120" height="30" as="geometry" />
        </mxCell>
        <mxCell id="63CUUzJwgc4DHzstttqR-6" value="" style="endArrow=none;html=1;rounded=0;" parent="1" edge="1">
          <mxGeometry width="50" height="50" relative="1" as="geometry">
            <mxPoint x="669" y="355" as="sourcePoint" />
            <mxPoint x="759" y="355" as="targetPoint" />
          </mxGeometry>
        </mxCell>
        <mxCell id="63CUUzJwgc4DHzstttqR-7" value="finishDate" style="text;html=1;strokeColor=none;fillColor=none;align=left;verticalAlign=middle;whiteSpace=wrap;rounded=0;movable=1;resizable=1;rotatable=1;deletable=1;editable=1;locked=0;connectable=1;" parent="1" vertex="1">
          <mxGeometry x="668" y="355" width="120" height="30" as="geometry" />
        </mxCell>
        <mxCell id="63CUUzJwgc4DHzstttqR-8" value="" style="endArrow=none;html=1;rounded=0;" parent="1" edge="1">
          <mxGeometry width="50" height="50" relative="1" as="geometry">
            <mxPoint x="669" y="385" as="sourcePoint" />
            <mxPoint x="759" y="385" as="targetPoint" />
          </mxGeometry>
        </mxCell>
        <mxCell id="63CUUzJwgc4DHzstttqR-9" value="projectDescription" style="text;html=1;strokeColor=none;fillColor=none;align=left;verticalAlign=middle;whiteSpace=wrap;rounded=0;movable=1;resizable=1;rotatable=1;deletable=1;editable=1;locked=0;connectable=1;" parent="1" vertex="1">
          <mxGeometry x="668" y="385" width="120" height="30" as="geometry" />
        </mxCell>
        <mxCell id="63CUUzJwgc4DHzstttqR-10" value="" style="endArrow=none;html=1;rounded=0;" parent="1" edge="1">
          <mxGeometry width="50" height="50" relative="1" as="geometry">
            <mxPoint x="669" y="415" as="sourcePoint" />
            <mxPoint x="759" y="415" as="targetPoint" />
          </mxGeometry>
        </mxCell>
        <mxCell id="63CUUzJwgc4DHzstttqR-11" value="projectBudget" style="text;html=1;strokeColor=none;fillColor=none;align=left;verticalAlign=middle;whiteSpace=wrap;rounded=0;movable=1;resizable=1;rotatable=1;deletable=1;editable=1;locked=0;connectable=1;" parent="1" vertex="1">
          <mxGeometry x="668" y="415" width="120" height="30" as="geometry" />
        </mxCell>
        <mxCell id="63CUUzJwgc4DHzstttqR-12" value="" style="endArrow=none;html=1;rounded=0;" parent="1" edge="1">
          <mxGeometry width="50" height="50" relative="1" as="geometry">
            <mxPoint x="669" y="445" as="sourcePoint" />
            <mxPoint x="759" y="445" as="targetPoint" />
          </mxGeometry>
        </mxCell>
        <mxCell id="63CUUzJwgc4DHzstttqR-13" value="projectID" style="text;html=1;strokeColor=none;fillColor=none;align=left;verticalAlign=middle;whiteSpace=wrap;rounded=0;movable=1;resizable=1;rotatable=1;deletable=1;editable=1;locked=0;connectable=1;" parent="1" vertex="1">
          <mxGeometry x="668" y="445" width="120" height="30" as="geometry" />
        </mxCell>
        <mxCell id="63CUUzJwgc4DHzstttqR-14" value="" style="endArrow=none;html=1;rounded=0;" parent="1" edge="1">
          <mxGeometry width="50" height="50" relative="1" as="geometry">
            <mxPoint x="669" y="475" as="sourcePoint" />
            <mxPoint x="759" y="475" as="targetPoint" />
          </mxGeometry>
        </mxCell>
        <mxCell id="lYw7gCNTbKRMw0fKKbSA-14" style="edgeStyle=orthogonalEdgeStyle;rounded=0;orthogonalLoop=1;jettySize=auto;html=1;entryX=-0.001;entryY=0.576;entryDx=0;entryDy=0;entryPerimeter=0;endArrow=none;endFill=0;" edge="1" parent="1" source="63CUUzJwgc4DHzstttqR-15" target="63CUUzJwgc4DHzstttqR-39">
          <mxGeometry relative="1" as="geometry" />
        </mxCell>
        <mxCell id="63CUUzJwgc4DHzstttqR-15" value="milestones" style="text;html=1;strokeColor=none;fillColor=none;align=left;verticalAlign=middle;whiteSpace=wrap;rounded=0;movable=1;resizable=1;rotatable=1;deletable=1;editable=1;locked=0;connectable=1;" parent="1" vertex="1">
          <mxGeometry x="668" y="475" width="120" height="30" as="geometry" />
        </mxCell>
        <mxCell id="63CUUzJwgc4DHzstttqR-16" value="" style="endArrow=none;html=1;rounded=0;" parent="1" edge="1">
          <mxGeometry width="50" height="50" relative="1" as="geometry">
            <mxPoint x="669" y="505" as="sourcePoint" />
            <mxPoint x="759" y="505" as="targetPoint" />
          </mxGeometry>
        </mxCell>
        <mxCell id="63CUUzJwgc4DHzstttqR-17" value="projectSponsor" style="text;html=1;strokeColor=none;fillColor=none;align=left;verticalAlign=middle;whiteSpace=wrap;rounded=0;movable=1;resizable=1;rotatable=1;deletable=1;editable=1;locked=0;connectable=1;" parent="1" vertex="1">
          <mxGeometry x="668" y="505" width="120" height="30" as="geometry" />
        </mxCell>
        <mxCell id="63CUUzJwgc4DHzstttqR-18" value="" style="endArrow=none;html=1;rounded=0;" parent="1" edge="1">
          <mxGeometry width="50" height="50" relative="1" as="geometry">
            <mxPoint x="669" y="535" as="sourcePoint" />
            <mxPoint x="759" y="535" as="targetPoint" />
          </mxGeometry>
        </mxCell>
        <mxCell id="63CUUzJwgc4DHzstttqR-19" value="" style="endArrow=none;html=1;rounded=0;" parent="1" edge="1">
          <mxGeometry width="50" height="50" relative="1" as="geometry">
            <mxPoint x="669" y="565" as="sourcePoint" />
            <mxPoint x="759" y="565" as="targetPoint" />
          </mxGeometry>
        </mxCell>
        <mxCell id="63CUUzJwgc4DHzstttqR-20" value="" style="edgeStyle=orthogonalEdgeStyle;rounded=0;orthogonalLoop=1;jettySize=auto;html=1;exitX=0.25;exitY=0;exitDx=0;exitDy=0;entryX=0.5;entryY=1;entryDx=0;entryDy=0;endArrow=none;endFill=0;" parent="1" source="63CUUzJwgc4DHzstttqR-4" edge="1">
          <mxGeometry relative="1" as="geometry">
            <mxPoint x="694" y="295" as="sourcePoint" />
            <mxPoint x="674" y="295" as="targetPoint" />
          </mxGeometry>
        </mxCell>
        <mxCell id="63CUUzJwgc4DHzstttqR-21" value="department" style="text;html=1;strokeColor=none;fillColor=none;align=left;verticalAlign=middle;whiteSpace=wrap;rounded=0;movable=1;resizable=1;rotatable=1;deletable=1;editable=1;locked=0;connectable=1;" parent="1" vertex="1">
          <mxGeometry x="668" y="535" width="120" height="30" as="geometry" />
        </mxCell>
        <mxCell id="63CUUzJwgc4DHzstttqR-22" value="" style="group" parent="1" vertex="1" connectable="0">
          <mxGeometry x="394" y="550" width="120" height="30" as="geometry" />
        </mxCell>
        <mxCell id="KiiTx_aMD7oUM9jOCkIs-20" value="" style="endArrow=none;html=1;rounded=0;" parent="63CUUzJwgc4DHzstttqR-22" edge="1">
          <mxGeometry width="50" height="50" relative="1" as="geometry">
            <mxPoint x="1" y="30" as="sourcePoint" />
            <mxPoint x="91" y="30" as="targetPoint" />
          </mxGeometry>
        </mxCell>
        <mxCell id="63CUUzJwgc4DHzstttqR-2" value="employeeID" style="text;html=1;strokeColor=none;fillColor=none;align=left;verticalAlign=middle;whiteSpace=wrap;rounded=0;movable=1;resizable=1;rotatable=1;deletable=1;editable=1;locked=0;connectable=1;" parent="63CUUzJwgc4DHzstttqR-22" vertex="1">
          <mxGeometry width="120" height="30" as="geometry" />
        </mxCell>
        <mxCell id="63CUUzJwgc4DHzstttqR-23" value="" style="group" parent="1" vertex="1" connectable="0">
          <mxGeometry x="394" y="581" width="120" height="30" as="geometry" />
        </mxCell>
        <mxCell id="63CUUzJwgc4DHzstttqR-24" value="" style="endArrow=none;html=1;rounded=0;" parent="63CUUzJwgc4DHzstttqR-23" edge="1">
          <mxGeometry width="50" height="50" relative="1" as="geometry">
            <mxPoint x="1" y="30" as="sourcePoint" />
            <mxPoint x="91" y="30" as="targetPoint" />
          </mxGeometry>
        </mxCell>
        <mxCell id="63CUUzJwgc4DHzstttqR-25" value="department" style="text;html=1;strokeColor=none;fillColor=none;align=left;verticalAlign=middle;whiteSpace=wrap;rounded=0;movable=1;resizable=1;rotatable=1;deletable=1;editable=1;locked=0;connectable=1;" parent="63CUUzJwgc4DHzstttqR-23" vertex="1">
          <mxGeometry width="120" height="30" as="geometry" />
        </mxCell>
        <mxCell id="63CUUzJwgc4DHzstttqR-26" value="" style="group" parent="1" vertex="1" connectable="0">
          <mxGeometry x="668" y="568" width="120" height="30" as="geometry" />
        </mxCell>
        <mxCell id="63CUUzJwgc4DHzstttqR-27" value="" style="endArrow=none;html=1;rounded=0;" parent="63CUUzJwgc4DHzstttqR-26" edge="1">
          <mxGeometry width="50" height="50" relative="1" as="geometry">
            <mxPoint x="1" y="30" as="sourcePoint" />
            <mxPoint x="91" y="30" as="targetPoint" />
          </mxGeometry>
        </mxCell>
        <mxCell id="63CUUzJwgc4DHzstttqR-28" value="documentation" style="text;html=1;strokeColor=none;fillColor=none;align=left;verticalAlign=middle;whiteSpace=wrap;rounded=0;movable=1;resizable=1;rotatable=1;deletable=1;editable=1;locked=0;connectable=1;" parent="63CUUzJwgc4DHzstttqR-26" vertex="1">
          <mxGeometry width="120" height="30" as="geometry" />
        </mxCell>
        <mxCell id="63CUUzJwgc4DHzstttqR-32" value="" style="group" parent="1" vertex="1" connectable="0">
          <mxGeometry x="668" y="597" width="120" height="30" as="geometry" />
        </mxCell>
        <mxCell id="63CUUzJwgc4DHzstttqR-33" value="" style="endArrow=none;html=1;rounded=0;" parent="63CUUzJwgc4DHzstttqR-32" edge="1">
          <mxGeometry width="50" height="50" relative="1" as="geometry">
            <mxPoint x="1" y="30" as="sourcePoint" />
            <mxPoint x="91" y="30" as="targetPoint" />
          </mxGeometry>
        </mxCell>
        <mxCell id="63CUUzJwgc4DHzstttqR-34" value="projectName" style="text;html=1;strokeColor=none;fillColor=none;align=left;verticalAlign=middle;whiteSpace=wrap;rounded=0;movable=1;resizable=1;rotatable=1;deletable=1;editable=1;locked=0;connectable=1;" parent="63CUUzJwgc4DHzstttqR-32" vertex="1">
          <mxGeometry width="120" height="30" as="geometry" />
        </mxCell>
        <mxCell id="63CUUzJwgc4DHzstttqR-36" value="has" style="text;html=1;align=center;verticalAlign=middle;resizable=0;points=[];autosize=1;strokeColor=none;fillColor=none;fontSize=11;fontFamily=Helvetica;fontColor=default;" parent="1" vertex="1">
          <mxGeometry x="572" y="420" width="36" height="25" as="geometry" />
        </mxCell>
        <mxCell id="63CUUzJwgc4DHzstttqR-37" value="0..*" style="text;html=1;align=center;verticalAlign=middle;resizable=0;points=[];autosize=1;strokeColor=none;fillColor=none;fontSize=11;fontFamily=Helvetica;fontColor=default;" parent="1" vertex="1">
          <mxGeometry x="626" y="417.5" width="35" height="25" as="geometry" />
        </mxCell>
        <mxCell id="63CUUzJwgc4DHzstttqR-38" value="1..*" style="text;html=1;align=center;verticalAlign=middle;resizable=0;points=[];autosize=1;strokeColor=none;fillColor=none;fontSize=11;fontFamily=Helvetica;fontColor=default;" parent="1" vertex="1">
          <mxGeometry x="514" y="420" width="35" height="25" as="geometry" />
        </mxCell>
        <mxCell id="63CUUzJwgc4DHzstttqR-39" value="" style="rounded=0;whiteSpace=wrap;html=1;movable=1;resizable=1;rotatable=1;deletable=1;editable=1;locked=0;connectable=1;" parent="1" vertex="1">
          <mxGeometry x="916" y="407.5" width="120" height="143" as="geometry" />
        </mxCell>
        <mxCell id="63CUUzJwgc4DHzstttqR-40" value="Project Activities" style="rounded=0;whiteSpace=wrap;html=1;fontSize=11;" parent="1" vertex="1">
          <mxGeometry x="916" y="407.5" width="120" height="30" as="geometry" />
        </mxCell>
        <mxCell id="lYw7gCNTbKRMw0fKKbSA-18" style="edgeStyle=orthogonalEdgeStyle;shape=connector;rounded=0;orthogonalLoop=1;jettySize=auto;html=1;entryX=0;entryY=0.5;entryDx=0;entryDy=0;labelBackgroundColor=default;strokeColor=default;fontFamily=Helvetica;fontSize=11;fontColor=default;endArrow=none;endFill=0;" edge="1" parent="1" source="63CUUzJwgc4DHzstttqR-45" target="63CUUzJwgc4DHzstttqR-89">
          <mxGeometry relative="1" as="geometry" />
        </mxCell>
        <mxCell id="63CUUzJwgc4DHzstttqR-45" value="completeTask" style="text;html=1;strokeColor=none;fillColor=none;align=left;verticalAlign=middle;whiteSpace=wrap;rounded=0;movable=1;resizable=1;rotatable=1;deletable=1;editable=1;locked=0;connectable=1;" parent="1" vertex="1">
          <mxGeometry x="921" y="437.5" width="120" height="30" as="geometry" />
        </mxCell>
        <mxCell id="63CUUzJwgc4DHzstttqR-46" value="" style="endArrow=none;html=1;rounded=0;" parent="1" edge="1">
          <mxGeometry width="50" height="50" relative="1" as="geometry">
            <mxPoint x="922" y="467.5" as="sourcePoint" />
            <mxPoint x="1012" y="467.5" as="targetPoint" />
          </mxGeometry>
        </mxCell>
        <mxCell id="63CUUzJwgc4DHzstttqR-47" value="tasks" style="text;html=1;strokeColor=none;fillColor=none;align=left;verticalAlign=middle;whiteSpace=wrap;rounded=0;movable=1;resizable=1;rotatable=1;deletable=1;editable=1;locked=0;connectable=1;" parent="1" vertex="1">
          <mxGeometry x="921" y="467.5" width="120" height="30" as="geometry" />
        </mxCell>
        <mxCell id="63CUUzJwgc4DHzstttqR-48" value="" style="endArrow=none;html=1;rounded=0;" parent="1" edge="1">
          <mxGeometry width="50" height="50" relative="1" as="geometry">
            <mxPoint x="922" y="497.5" as="sourcePoint" />
            <mxPoint x="1012" y="497.5" as="targetPoint" />
          </mxGeometry>
        </mxCell>
        <mxCell id="63CUUzJwgc4DHzstttqR-56" value="" style="edgeStyle=orthogonalEdgeStyle;rounded=0;orthogonalLoop=1;jettySize=auto;html=1;exitX=0.25;exitY=0;exitDx=0;exitDy=0;entryX=0.5;entryY=1;entryDx=0;entryDy=0;endArrow=none;endFill=0;" parent="1" source="63CUUzJwgc4DHzstttqR-40" edge="1">
          <mxGeometry relative="1" as="geometry">
            <mxPoint x="946" y="407.5" as="sourcePoint" />
            <mxPoint x="926" y="407.5" as="targetPoint" />
          </mxGeometry>
        </mxCell>
        <mxCell id="63CUUzJwgc4DHzstttqR-64" value="" style="rounded=0;whiteSpace=wrap;html=1;movable=1;resizable=1;rotatable=1;deletable=1;editable=1;locked=0;connectable=1;" parent="1" vertex="1">
          <mxGeometry x="1182" y="554" width="120" height="169" as="geometry" />
        </mxCell>
        <mxCell id="63CUUzJwgc4DHzstttqR-65" value="Non-Billable Activities" style="rounded=0;whiteSpace=wrap;html=1;fontSize=11;" parent="1" vertex="1">
          <mxGeometry x="1182" y="554" width="120" height="30" as="geometry" />
        </mxCell>
        <mxCell id="63CUUzJwgc4DHzstttqR-66" value="vacation" style="text;html=1;strokeColor=none;fillColor=none;align=left;verticalAlign=middle;whiteSpace=wrap;rounded=0;movable=1;resizable=1;rotatable=1;deletable=1;editable=1;locked=0;connectable=1;" parent="1" vertex="1">
          <mxGeometry x="1186" y="584" width="120" height="30" as="geometry" />
        </mxCell>
        <mxCell id="63CUUzJwgc4DHzstttqR-67" value="" style="endArrow=none;html=1;rounded=0;" parent="1" edge="1">
          <mxGeometry width="50" height="50" relative="1" as="geometry">
            <mxPoint x="1187" y="614" as="sourcePoint" />
            <mxPoint x="1277" y="614" as="targetPoint" />
          </mxGeometry>
        </mxCell>
        <mxCell id="63CUUzJwgc4DHzstttqR-68" value="sickIllness" style="text;html=1;strokeColor=none;fillColor=none;align=left;verticalAlign=middle;whiteSpace=wrap;rounded=0;movable=1;resizable=1;rotatable=1;deletable=1;editable=1;locked=0;connectable=1;" parent="1" vertex="1">
          <mxGeometry x="1186" y="614" width="120" height="30" as="geometry" />
        </mxCell>
        <mxCell id="63CUUzJwgc4DHzstttqR-69" value="" style="endArrow=none;html=1;rounded=0;" parent="1" edge="1">
          <mxGeometry width="50" height="50" relative="1" as="geometry">
            <mxPoint x="1187" y="644" as="sourcePoint" />
            <mxPoint x="1277" y="644" as="targetPoint" />
          </mxGeometry>
        </mxCell>
        <mxCell id="63CUUzJwgc4DHzstttqR-70" value="personalDay" style="text;html=1;strokeColor=none;fillColor=none;align=left;verticalAlign=middle;whiteSpace=wrap;rounded=0;movable=1;resizable=1;rotatable=1;deletable=1;editable=1;locked=0;connectable=1;" parent="1" vertex="1">
          <mxGeometry x="1186" y="644" width="120" height="30" as="geometry" />
        </mxCell>
        <mxCell id="63CUUzJwgc4DHzstttqR-71" value="" style="endArrow=none;html=1;rounded=0;" parent="1" edge="1">
          <mxGeometry width="50" height="50" relative="1" as="geometry">
            <mxPoint x="1187" y="674" as="sourcePoint" />
            <mxPoint x="1277" y="674" as="targetPoint" />
          </mxGeometry>
        </mxCell>
        <mxCell id="63CUUzJwgc4DHzstttqR-72" value="administrativeTasks" style="text;html=1;strokeColor=none;fillColor=none;align=left;verticalAlign=middle;whiteSpace=wrap;rounded=0;movable=1;resizable=1;rotatable=1;deletable=1;editable=1;locked=0;connectable=1;" parent="1" vertex="1">
          <mxGeometry x="1186" y="674" width="120" height="30" as="geometry" />
        </mxCell>
        <mxCell id="63CUUzJwgc4DHzstttqR-73" value="" style="endArrow=none;html=1;rounded=0;" parent="1" edge="1">
          <mxGeometry width="50" height="50" relative="1" as="geometry">
            <mxPoint x="1187" y="704" as="sourcePoint" />
            <mxPoint x="1277" y="704" as="targetPoint" />
          </mxGeometry>
        </mxCell>
        <mxCell id="63CUUzJwgc4DHzstttqR-81" value="" style="edgeStyle=orthogonalEdgeStyle;rounded=0;orthogonalLoop=1;jettySize=auto;html=1;exitX=0.25;exitY=0;exitDx=0;exitDy=0;entryX=0.5;entryY=1;entryDx=0;entryDy=0;endArrow=none;endFill=0;" parent="1" source="63CUUzJwgc4DHzstttqR-65" edge="1">
          <mxGeometry relative="1" as="geometry">
            <mxPoint x="1212" y="554" as="sourcePoint" />
            <mxPoint x="1192" y="554" as="targetPoint" />
          </mxGeometry>
        </mxCell>
        <mxCell id="63CUUzJwgc4DHzstttqR-89" value="" style="rounded=0;whiteSpace=wrap;html=1;movable=1;resizable=1;rotatable=1;deletable=1;editable=1;locked=0;connectable=1;" parent="1" vertex="1">
          <mxGeometry x="1180" y="273" width="128" height="198" as="geometry" />
        </mxCell>
        <mxCell id="63CUUzJwgc4DHzstttqR-90" value="Billable Activities" style="rounded=0;whiteSpace=wrap;html=1;fontSize=11;" parent="1" vertex="1">
          <mxGeometry x="1180" y="273" width="128" height="30" as="geometry" />
        </mxCell>
        <mxCell id="63CUUzJwgc4DHzstttqR-91" value="projectManagement" style="text;html=1;strokeColor=none;fillColor=none;align=left;verticalAlign=middle;whiteSpace=wrap;rounded=0;movable=1;resizable=1;rotatable=1;deletable=1;editable=1;locked=0;connectable=1;" parent="1" vertex="1">
          <mxGeometry x="1184" y="303" width="120" height="30" as="geometry" />
        </mxCell>
        <mxCell id="63CUUzJwgc4DHzstttqR-92" value="" style="endArrow=none;html=1;rounded=0;" parent="1" edge="1">
          <mxGeometry width="50" height="50" relative="1" as="geometry">
            <mxPoint x="1185" y="333" as="sourcePoint" />
            <mxPoint x="1275" y="333" as="targetPoint" />
          </mxGeometry>
        </mxCell>
        <mxCell id="63CUUzJwgc4DHzstttqR-93" value="analysis" style="text;html=1;strokeColor=none;fillColor=none;align=left;verticalAlign=middle;whiteSpace=wrap;rounded=0;movable=1;resizable=1;rotatable=1;deletable=1;editable=1;locked=0;connectable=1;" parent="1" vertex="1">
          <mxGeometry x="1184" y="333" width="120" height="30" as="geometry" />
        </mxCell>
        <mxCell id="63CUUzJwgc4DHzstttqR-94" value="" style="endArrow=none;html=1;rounded=0;" parent="1" edge="1">
          <mxGeometry width="50" height="50" relative="1" as="geometry">
            <mxPoint x="1185" y="363" as="sourcePoint" />
            <mxPoint x="1275" y="363" as="targetPoint" />
          </mxGeometry>
        </mxCell>
        <mxCell id="63CUUzJwgc4DHzstttqR-95" value="design" style="text;html=1;strokeColor=none;fillColor=none;align=left;verticalAlign=middle;whiteSpace=wrap;rounded=0;movable=1;resizable=1;rotatable=1;deletable=1;editable=1;locked=0;connectable=1;" parent="1" vertex="1">
          <mxGeometry x="1184" y="363" width="120" height="30" as="geometry" />
        </mxCell>
        <mxCell id="63CUUzJwgc4DHzstttqR-96" value="" style="endArrow=none;html=1;rounded=0;" parent="1" edge="1">
          <mxGeometry width="50" height="50" relative="1" as="geometry">
            <mxPoint x="1185" y="393" as="sourcePoint" />
            <mxPoint x="1275" y="393" as="targetPoint" />
          </mxGeometry>
        </mxCell>
        <mxCell id="63CUUzJwgc4DHzstttqR-97" value="development" style="text;html=1;strokeColor=none;fillColor=none;align=left;verticalAlign=middle;whiteSpace=wrap;rounded=0;movable=1;resizable=1;rotatable=1;deletable=1;editable=1;locked=0;connectable=1;" parent="1" vertex="1">
          <mxGeometry x="1184" y="393" width="120" height="30" as="geometry" />
        </mxCell>
        <mxCell id="63CUUzJwgc4DHzstttqR-98" value="" style="endArrow=none;html=1;rounded=0;" parent="1" edge="1">
          <mxGeometry width="50" height="50" relative="1" as="geometry">
            <mxPoint x="1185" y="423" as="sourcePoint" />
            <mxPoint x="1275" y="423" as="targetPoint" />
          </mxGeometry>
        </mxCell>
        <mxCell id="63CUUzJwgc4DHzstttqR-99" value="" style="edgeStyle=orthogonalEdgeStyle;rounded=0;orthogonalLoop=1;jettySize=auto;html=1;exitX=0.25;exitY=0;exitDx=0;exitDy=0;entryX=0.5;entryY=1;entryDx=0;entryDy=0;endArrow=none;endFill=0;" parent="1" source="63CUUzJwgc4DHzstttqR-90" edge="1">
          <mxGeometry relative="1" as="geometry">
            <mxPoint x="1210" y="273" as="sourcePoint" />
            <mxPoint x="1190" y="273" as="targetPoint" />
          </mxGeometry>
        </mxCell>
        <mxCell id="63CUUzJwgc4DHzstttqR-100" value="" style="group" parent="1" vertex="1" connectable="0">
          <mxGeometry x="1184" y="425" width="120" height="30" as="geometry" />
        </mxCell>
        <mxCell id="63CUUzJwgc4DHzstttqR-101" value="" style="endArrow=none;html=1;rounded=0;" parent="63CUUzJwgc4DHzstttqR-100" edge="1">
          <mxGeometry width="50" height="50" relative="1" as="geometry">
            <mxPoint x="1" y="30" as="sourcePoint" />
            <mxPoint x="91" y="30" as="targetPoint" />
          </mxGeometry>
        </mxCell>
        <mxCell id="63CUUzJwgc4DHzstttqR-102" value="testingImplementation" style="text;html=1;strokeColor=none;fillColor=none;align=left;verticalAlign=middle;whiteSpace=wrap;rounded=0;movable=1;resizable=1;rotatable=1;deletable=1;editable=1;locked=0;connectable=1;" parent="63CUUzJwgc4DHzstttqR-100" vertex="1">
          <mxGeometry width="120" height="30" as="geometry" />
        </mxCell>
        <mxCell id="lYw7gCNTbKRMw0fKKbSA-4" value="" style="group" vertex="1" connectable="0" parent="1">
          <mxGeometry x="667" y="627" width="120" height="30" as="geometry" />
        </mxCell>
        <mxCell id="lYw7gCNTbKRMw0fKKbSA-5" value="" style="endArrow=none;html=1;rounded=0;" edge="1" parent="lYw7gCNTbKRMw0fKKbSA-4">
          <mxGeometry width="50" height="50" relative="1" as="geometry">
            <mxPoint x="1" y="30" as="sourcePoint" />
            <mxPoint x="91" y="30" as="targetPoint" />
          </mxGeometry>
        </mxCell>
        <mxCell id="lYw7gCNTbKRMw0fKKbSA-6" value="requirements" style="text;html=1;strokeColor=none;fillColor=none;align=left;verticalAlign=middle;whiteSpace=wrap;rounded=0;movable=1;resizable=1;rotatable=1;deletable=1;editable=1;locked=0;connectable=1;" vertex="1" parent="lYw7gCNTbKRMw0fKKbSA-4">
          <mxGeometry width="120" height="30" as="geometry" />
        </mxCell>
        <mxCell id="lYw7gCNTbKRMw0fKKbSA-8" value="" style="group" vertex="1" connectable="0" parent="1">
          <mxGeometry x="921" y="502.5" width="120" height="30" as="geometry" />
        </mxCell>
        <mxCell id="lYw7gCNTbKRMw0fKKbSA-9" value="" style="endArrow=none;html=1;rounded=0;" edge="1" parent="lYw7gCNTbKRMw0fKKbSA-8">
          <mxGeometry width="50" height="50" relative="1" as="geometry">
            <mxPoint x="1" y="30" as="sourcePoint" />
            <mxPoint x="91" y="30" as="targetPoint" />
          </mxGeometry>
        </mxCell>
        <mxCell id="lYw7gCNTbKRMw0fKKbSA-10" value="notes" style="text;html=1;strokeColor=none;fillColor=none;align=left;verticalAlign=middle;whiteSpace=wrap;rounded=0;movable=1;resizable=1;rotatable=1;deletable=1;editable=1;locked=0;connectable=1;" vertex="1" parent="lYw7gCNTbKRMw0fKKbSA-8">
          <mxGeometry width="120" height="30" as="geometry" />
        </mxCell>
        <mxCell id="lYw7gCNTbKRMw0fKKbSA-15" value="has" style="text;html=1;align=center;verticalAlign=middle;resizable=0;points=[];autosize=1;strokeColor=none;fillColor=none;fontSize=11;fontFamily=Helvetica;fontColor=default;" vertex="1" parent="1">
          <mxGeometry x="836" y="461" width="36" height="25" as="geometry" />
        </mxCell>
        <mxCell id="lYw7gCNTbKRMw0fKKbSA-16" value="1..*" style="text;html=1;align=center;verticalAlign=middle;resizable=0;points=[];autosize=1;strokeColor=none;fillColor=none;fontSize=11;fontFamily=Helvetica;fontColor=default;" vertex="1" parent="1">
          <mxGeometry x="876" y="461" width="35" height="25" as="geometry" />
        </mxCell>
        <mxCell id="lYw7gCNTbKRMw0fKKbSA-17" value="1" style="text;html=1;align=center;verticalAlign=middle;resizable=0;points=[];autosize=1;strokeColor=none;fillColor=none;fontSize=11;fontFamily=Helvetica;fontColor=default;" vertex="1" parent="1">
          <mxGeometry x="791" y="460" width="24" height="25" as="geometry" />
        </mxCell>
        <mxCell id="lYw7gCNTbKRMw0fKKbSA-19" value="has" style="text;html=1;align=center;verticalAlign=middle;resizable=0;points=[];autosize=1;strokeColor=none;fillColor=none;fontSize=11;fontFamily=Helvetica;fontColor=default;" vertex="1" parent="1">
          <mxGeometry x="1106" y="400" width="36" height="25" as="geometry" />
        </mxCell>
        <mxCell id="lYw7gCNTbKRMw0fKKbSA-20" value="1..*" style="text;html=1;align=center;verticalAlign=middle;resizable=0;points=[];autosize=1;strokeColor=none;fillColor=none;fontSize=11;fontFamily=Helvetica;fontColor=default;" vertex="1" parent="1">
          <mxGeometry x="1149" y="343" width="35" height="25" as="geometry" />
        </mxCell>
        <mxCell id="lYw7gCNTbKRMw0fKKbSA-21" value="1" style="text;html=1;align=center;verticalAlign=middle;resizable=0;points=[];autosize=1;strokeColor=none;fillColor=none;fontSize=11;fontFamily=Helvetica;fontColor=default;" vertex="1" parent="1">
          <mxGeometry x="1048" y="425" width="24" height="25" as="geometry" />
        </mxCell>
        <mxCell id="lYw7gCNTbKRMw0fKKbSA-22" style="edgeStyle=orthogonalEdgeStyle;shape=connector;rounded=0;orthogonalLoop=1;jettySize=auto;html=1;entryX=0.007;entryY=0.344;entryDx=0;entryDy=0;entryPerimeter=0;labelBackgroundColor=default;strokeColor=default;fontFamily=Helvetica;fontSize=11;fontColor=default;endArrow=none;endFill=0;" edge="1" parent="1" source="lYw7gCNTbKRMw0fKKbSA-10" target="63CUUzJwgc4DHzstttqR-64">
          <mxGeometry relative="1" as="geometry" />
        </mxCell>
        <mxCell id="lYw7gCNTbKRMw0fKKbSA-23" value="has" style="text;html=1;align=center;verticalAlign=middle;resizable=0;points=[];autosize=1;strokeColor=none;fillColor=none;fontSize=11;fontFamily=Helvetica;fontColor=default;" vertex="1" parent="1">
          <mxGeometry x="1082" y="550.5" width="36" height="25" as="geometry" />
        </mxCell>
        <mxCell id="lYw7gCNTbKRMw0fKKbSA-24" value="1..*" style="text;html=1;align=center;verticalAlign=middle;resizable=0;points=[];autosize=1;strokeColor=none;fillColor=none;fontSize=11;fontFamily=Helvetica;fontColor=default;" vertex="1" parent="1">
          <mxGeometry x="1150" y="589" width="35" height="25" as="geometry" />
        </mxCell>
        <mxCell id="lYw7gCNTbKRMw0fKKbSA-25" value="1" style="text;html=1;align=center;verticalAlign=middle;resizable=0;points=[];autosize=1;strokeColor=none;fillColor=none;fontSize=11;fontFamily=Helvetica;fontColor=default;" vertex="1" parent="1">
          <mxGeometry x="1049" y="494" width="24" height="25" as="geometry" />
        </mxCell>
        <mxCell id="lYw7gCNTbKRMw0fKKbSA-79" style="edgeStyle=orthogonalEdgeStyle;shape=connector;rounded=0;orthogonalLoop=1;jettySize=auto;html=1;labelBackgroundColor=default;strokeColor=default;fontFamily=Helvetica;fontSize=11;fontColor=default;endArrow=none;endFill=0;" edge="1" parent="1" source="lYw7gCNTbKRMw0fKKbSA-26" target="KiiTx_aMD7oUM9jOCkIs-2">
          <mxGeometry relative="1" as="geometry" />
        </mxCell>
        <mxCell id="lYw7gCNTbKRMw0fKKbSA-85" style="edgeStyle=orthogonalEdgeStyle;shape=connector;rounded=0;orthogonalLoop=1;jettySize=auto;html=1;entryX=0.5;entryY=0;entryDx=0;entryDy=0;labelBackgroundColor=default;strokeColor=default;fontFamily=Helvetica;fontSize=11;fontColor=default;endArrow=none;endFill=0;" edge="1" parent="1" source="lYw7gCNTbKRMw0fKKbSA-26" target="63CUUzJwgc4DHzstttqR-4">
          <mxGeometry relative="1" as="geometry" />
        </mxCell>
        <mxCell id="lYw7gCNTbKRMw0fKKbSA-26" value="" style="rounded=0;whiteSpace=wrap;html=1;movable=1;resizable=1;rotatable=1;deletable=1;editable=1;locked=0;connectable=1;" vertex="1" parent="1">
          <mxGeometry x="390.5" y="-48" width="120" height="290" as="geometry" />
        </mxCell>
        <mxCell id="lYw7gCNTbKRMw0fKKbSA-27" value="Timecard" style="rounded=0;whiteSpace=wrap;html=1;fontSize=11;" vertex="1" parent="1">
          <mxGeometry x="390.5" y="-48" width="120" height="30" as="geometry" />
        </mxCell>
        <mxCell id="lYw7gCNTbKRMw0fKKbSA-28" value="clockInTime" style="text;html=1;strokeColor=none;fillColor=none;align=left;verticalAlign=middle;whiteSpace=wrap;rounded=0;movable=1;resizable=1;rotatable=1;deletable=1;editable=1;locked=0;connectable=1;" vertex="1" parent="1">
          <mxGeometry x="395.5" y="-18" width="120" height="30" as="geometry" />
        </mxCell>
        <mxCell id="lYw7gCNTbKRMw0fKKbSA-29" value="" style="endArrow=none;html=1;rounded=0;" edge="1" parent="1">
          <mxGeometry width="50" height="50" relative="1" as="geometry">
            <mxPoint x="396.5" y="12" as="sourcePoint" />
            <mxPoint x="486.5" y="12" as="targetPoint" />
          </mxGeometry>
        </mxCell>
        <mxCell id="lYw7gCNTbKRMw0fKKbSA-30" value="clockOutTime" style="text;html=1;strokeColor=none;fillColor=none;align=left;verticalAlign=middle;whiteSpace=wrap;rounded=0;movable=1;resizable=1;rotatable=1;deletable=1;editable=1;locked=0;connectable=1;" vertex="1" parent="1">
          <mxGeometry x="395.5" y="12" width="120" height="30" as="geometry" />
        </mxCell>
        <mxCell id="lYw7gCNTbKRMw0fKKbSA-31" value="" style="endArrow=none;html=1;rounded=0;" edge="1" parent="1">
          <mxGeometry width="50" height="50" relative="1" as="geometry">
            <mxPoint x="396.5" y="42" as="sourcePoint" />
            <mxPoint x="486.5" y="42" as="targetPoint" />
          </mxGeometry>
        </mxCell>
        <mxCell id="lYw7gCNTbKRMw0fKKbSA-32" value="" style="edgeStyle=orthogonalEdgeStyle;rounded=0;orthogonalLoop=1;jettySize=auto;html=1;exitX=0.25;exitY=0;exitDx=0;exitDy=0;entryX=0.5;entryY=1;entryDx=0;entryDy=0;endArrow=none;endFill=0;" edge="1" parent="1" source="lYw7gCNTbKRMw0fKKbSA-27">
          <mxGeometry relative="1" as="geometry">
            <mxPoint x="420.5" y="-48" as="sourcePoint" />
            <mxPoint x="400.5" y="-48" as="targetPoint" />
          </mxGeometry>
        </mxCell>
        <mxCell id="lYw7gCNTbKRMw0fKKbSA-33" value="" style="group" vertex="1" connectable="0" parent="1">
          <mxGeometry x="395.5" y="47" width="120" height="30" as="geometry" />
        </mxCell>
        <mxCell id="lYw7gCNTbKRMw0fKKbSA-34" value="" style="endArrow=none;html=1;rounded=0;" edge="1" parent="lYw7gCNTbKRMw0fKKbSA-33">
          <mxGeometry width="50" height="50" relative="1" as="geometry">
            <mxPoint x="1" y="30" as="sourcePoint" />
            <mxPoint x="91" y="30" as="targetPoint" />
          </mxGeometry>
        </mxCell>
        <mxCell id="lYw7gCNTbKRMw0fKKbSA-35" value="startBreakTime" style="text;html=1;strokeColor=none;fillColor=none;align=left;verticalAlign=middle;whiteSpace=wrap;rounded=0;movable=1;resizable=1;rotatable=1;deletable=1;editable=1;locked=0;connectable=1;" vertex="1" parent="lYw7gCNTbKRMw0fKKbSA-33">
          <mxGeometry width="120" height="30" as="geometry" />
        </mxCell>
        <mxCell id="lYw7gCNTbKRMw0fKKbSA-36" value="" style="group" vertex="1" connectable="0" parent="1">
          <mxGeometry x="396.5" y="79.5" width="120" height="30" as="geometry" />
        </mxCell>
        <mxCell id="lYw7gCNTbKRMw0fKKbSA-37" value="" style="endArrow=none;html=1;rounded=0;" edge="1" parent="lYw7gCNTbKRMw0fKKbSA-36">
          <mxGeometry width="50" height="50" relative="1" as="geometry">
            <mxPoint x="1" y="30" as="sourcePoint" />
            <mxPoint x="91" y="30" as="targetPoint" />
          </mxGeometry>
        </mxCell>
        <mxCell id="lYw7gCNTbKRMw0fKKbSA-38" value="endBreakTime" style="text;html=1;strokeColor=none;fillColor=none;align=left;verticalAlign=middle;whiteSpace=wrap;rounded=0;movable=1;resizable=1;rotatable=1;deletable=1;editable=1;locked=0;connectable=1;" vertex="1" parent="lYw7gCNTbKRMw0fKKbSA-36">
          <mxGeometry width="120" height="30" as="geometry" />
        </mxCell>
        <mxCell id="lYw7gCNTbKRMw0fKKbSA-39" value="" style="group" vertex="1" connectable="0" parent="1">
          <mxGeometry x="396.5" y="109.5" width="120" height="30" as="geometry" />
        </mxCell>
        <mxCell id="lYw7gCNTbKRMw0fKKbSA-40" value="" style="endArrow=none;html=1;rounded=0;" edge="1" parent="lYw7gCNTbKRMw0fKKbSA-39">
          <mxGeometry width="50" height="50" relative="1" as="geometry">
            <mxPoint x="1" y="30" as="sourcePoint" />
            <mxPoint x="91" y="30" as="targetPoint" />
          </mxGeometry>
        </mxCell>
        <mxCell id="lYw7gCNTbKRMw0fKKbSA-41" value="calculatedHours" style="text;html=1;strokeColor=none;fillColor=none;align=left;verticalAlign=middle;whiteSpace=wrap;rounded=0;movable=1;resizable=1;rotatable=1;deletable=1;editable=1;locked=0;connectable=1;" vertex="1" parent="lYw7gCNTbKRMw0fKKbSA-39">
          <mxGeometry width="120" height="30" as="geometry" />
        </mxCell>
        <mxCell id="lYw7gCNTbKRMw0fKKbSA-42" value="" style="group" vertex="1" connectable="0" parent="1">
          <mxGeometry x="397.5" y="140.5" width="120" height="30" as="geometry" />
        </mxCell>
        <mxCell id="lYw7gCNTbKRMw0fKKbSA-43" value="" style="endArrow=none;html=1;rounded=0;" edge="1" parent="lYw7gCNTbKRMw0fKKbSA-42">
          <mxGeometry width="50" height="50" relative="1" as="geometry">
            <mxPoint x="1" y="30" as="sourcePoint" />
            <mxPoint x="91" y="30" as="targetPoint" />
          </mxGeometry>
        </mxCell>
        <mxCell id="lYw7gCNTbKRMw0fKKbSA-44" value="billed" style="text;html=1;strokeColor=none;fillColor=none;align=left;verticalAlign=middle;whiteSpace=wrap;rounded=0;movable=1;resizable=1;rotatable=1;deletable=1;editable=1;locked=0;connectable=1;" vertex="1" parent="lYw7gCNTbKRMw0fKKbSA-42">
          <mxGeometry width="120" height="30" as="geometry" />
        </mxCell>
        <mxCell id="lYw7gCNTbKRMw0fKKbSA-45" value="" style="group" vertex="1" connectable="0" parent="1">
          <mxGeometry x="397.5" y="172.5" width="120" height="30" as="geometry" />
        </mxCell>
        <mxCell id="lYw7gCNTbKRMw0fKKbSA-46" value="" style="endArrow=none;html=1;rounded=0;" edge="1" parent="lYw7gCNTbKRMw0fKKbSA-45">
          <mxGeometry width="50" height="50" relative="1" as="geometry">
            <mxPoint x="1" y="30" as="sourcePoint" />
            <mxPoint x="91" y="30" as="targetPoint" />
          </mxGeometry>
        </mxCell>
        <mxCell id="lYw7gCNTbKRMw0fKKbSA-47" value="currentPeriod" style="text;html=1;strokeColor=none;fillColor=none;align=left;verticalAlign=middle;whiteSpace=wrap;rounded=0;movable=1;resizable=1;rotatable=1;deletable=1;editable=1;locked=0;connectable=1;" vertex="1" parent="lYw7gCNTbKRMw0fKKbSA-45">
          <mxGeometry width="120" height="30" as="geometry" />
        </mxCell>
        <mxCell id="lYw7gCNTbKRMw0fKKbSA-76" value="" style="group" vertex="1" connectable="0" parent="1">
          <mxGeometry x="398" y="202" width="120" height="30" as="geometry" />
        </mxCell>
        <mxCell id="lYw7gCNTbKRMw0fKKbSA-77" value="" style="endArrow=none;html=1;rounded=0;" edge="1" parent="lYw7gCNTbKRMw0fKKbSA-76">
          <mxGeometry width="50" height="50" relative="1" as="geometry">
            <mxPoint x="1" y="30" as="sourcePoint" />
            <mxPoint x="91" y="30" as="targetPoint" />
          </mxGeometry>
        </mxCell>
        <mxCell id="lYw7gCNTbKRMw0fKKbSA-78" value="invoiceNumber" style="text;html=1;strokeColor=none;fillColor=none;align=left;verticalAlign=middle;whiteSpace=wrap;rounded=0;movable=1;resizable=1;rotatable=1;deletable=1;editable=1;locked=0;connectable=1;" vertex="1" parent="lYw7gCNTbKRMw0fKKbSA-76">
          <mxGeometry width="120" height="30" as="geometry" />
        </mxCell>
        <mxCell id="lYw7gCNTbKRMw0fKKbSA-80" value="has" style="text;html=1;align=center;verticalAlign=middle;resizable=0;points=[];autosize=1;strokeColor=none;fillColor=none;fontSize=11;fontFamily=Helvetica;fontColor=default;" vertex="1" parent="1">
          <mxGeometry x="446" y="262" width="36" height="25" as="geometry" />
        </mxCell>
        <mxCell id="lYw7gCNTbKRMw0fKKbSA-81" value="1" style="text;html=1;align=center;verticalAlign=middle;resizable=0;points=[];autosize=1;strokeColor=none;fillColor=none;fontSize=11;fontFamily=Helvetica;fontColor=default;" vertex="1" parent="1">
          <mxGeometry x="452" y="287" width="24" height="25" as="geometry" />
        </mxCell>
        <mxCell id="lYw7gCNTbKRMw0fKKbSA-83" value="1" style="text;html=1;align=center;verticalAlign=middle;resizable=0;points=[];autosize=1;strokeColor=none;fillColor=none;fontSize=11;fontFamily=Helvetica;fontColor=default;" vertex="1" parent="1">
          <mxGeometry x="450" y="243" width="24" height="25" as="geometry" />
        </mxCell>
        <mxCell id="lYw7gCNTbKRMw0fKKbSA-86" value="references" style="text;html=1;align=center;verticalAlign=middle;resizable=0;points=[];autosize=1;strokeColor=none;fillColor=none;fontSize=11;fontFamily=Helvetica;fontColor=default;" vertex="1" parent="1">
          <mxGeometry x="641" y="101" width="70" height="25" as="geometry" />
        </mxCell>
        <mxCell id="lYw7gCNTbKRMw0fKKbSA-87" value="0..*" style="text;html=1;align=center;verticalAlign=middle;resizable=0;points=[];autosize=1;strokeColor=none;fillColor=none;fontSize=11;fontFamily=Helvetica;fontColor=default;" vertex="1" parent="1">
          <mxGeometry x="725" y="270" width="35" height="25" as="geometry" />
        </mxCell>
        <mxCell id="lYw7gCNTbKRMw0fKKbSA-88" value="0..*" style="text;html=1;align=center;verticalAlign=middle;resizable=0;points=[];autosize=1;strokeColor=none;fillColor=none;fontSize=11;fontFamily=Helvetica;fontColor=default;" vertex="1" parent="1">
          <mxGeometry x="511" y="97" width="35" height="25" as="geometry" />
        </mxCell>
      </root>
    </mxGraphModel>
  </diagram>
</mxfile>
